<?xml version="1.0" standalone="no"?>
<!DOCTYPE svg PUBLIC "-//W3C//DTD SVG 20010904//EN"
 "http://www.w3.org/TR/2001/REC-SVG-20010904/DTD/svg10.dtd">
<svg version="1.0" xmlns="http://www.w3.org/2000/svg"
 width="512.000000pt" height="512.000000pt" viewBox="0 0 512.000000 512.000000"
 preserveAspectRatio="xMidYMid meet">
<metadata>
Created by potrace 1.11, written by Peter Selinger 2001-2013
</metadata>
<g transform="translate(0.000000,512.000000) scale(0.100000,-0.100000)"
fill="#000000" stroke="none">
<path d="M890 2575 l0 -1215 258 0 257 0 -1 895 c-1 789 1 895 14 893 16 -3
17 -7 27 -106 3 -37 8 -83 10 -102 2 -19 7 -64 10 -100 4 -36 8 -81 10 -100 2
-19 7 -64 10 -100 4 -36 8 -78 10 -95 2 -16 6 -61 10 -100 8 -89 15 -163 20
-195 2 -14 6 -61 10 -105 4 -44 8 -93 10 -110 4 -33 13 -126 20 -195 7 -71 16
-162 20 -195 2 -16 7 -64 11 -105 3 -41 8 -86 9 -100 2 -14 3 -37 4 -52 l1
-28 274 0 c255 0 275 1 274 18 -1 9 2 49 7 87 4 39 9 84 10 100 2 17 6 59 10
94 4 35 8 80 10 100 7 79 16 158 20 186 2 17 7 66 11 110 3 44 8 88 9 97 2 9
6 49 10 90 3 40 8 84 10 98 2 14 7 59 10 100 4 41 9 82 10 91 2 9 6 56 10 105
4 49 8 96 10 104 1 8 6 44 10 80 3 36 8 81 10 100 2 19 7 67 11 105 6 69 10
103 13 118 0 4 7 7 14 7 10 0 13 -175 12 -895 l0 -895 263 0 262 0 0 1215 0
1215 -417 -2 -417 -3 -1 -25 c-3 -38 -16 -200 -20 -240 -2 -19 -6 -67 -9 -106
-3 -39 -8 -88 -10 -110 -3 -21 -8 -77 -11 -124 -3 -47 -8 -96 -10 -110 -2 -14
-7 -63 -10 -110 -4 -47 -8 -101 -10 -120 -2 -19 -6 -69 -10 -110 -3 -41 -8
-91 -10 -110 -2 -19 -6 -69 -10 -110 -3 -41 -8 -91 -10 -110 -4 -29 -12 -127
-19 -225 -1 -23 -28 -27 -31 -5 -1 8 -6 55 -10 104 -4 50 -8 97 -10 105 -1 9
-6 61 -9 116 -4 55 -9 107 -11 115 -2 8 -6 51 -10 95 -3 44 -8 98 -10 120 -4
41 -14 149 -20 220 -2 22 -7 76 -10 120 -3 44 -8 91 -10 105 -2 14 -7 61 -10
105 -3 44 -8 94 -10 110 -2 17 -7 73 -11 125 -4 52 -8 102 -10 110 -1 8 -3 27
-3 43 l-1 27 -425 0 -425 0 0 -1215z"/>
<path d="M3024 3540 l0 -250 31 -1 c16 0 91 -1 165 -2 l135 -2 2 -880 c2 -484
3 -917 3 -962 l0 -83 273 0 272 0 0 962 0 963 140 2 c77 1 152 2 168 2 l27 1
0 250 0 250 -608 0 -608 0 0 -250z"/>
</g>
</svg>
